<svg width="24" height="24" viewBox="0 0 24 24" fill="none" xmlns="http://www.w3.org/2000/svg">
<path d="M10 15.7099V14.1249C8.80682 13.6575 7.81417 12.7882 7.19339 11.6671C6.57261 10.546 6.36263 9.24343 6.59969 7.98405C6.83675 6.72468 7.50597 5.58756 8.49188 4.7689C9.4778 3.95025 10.7185 3.50141 12 3.49985C13.2633 3.49905 14.4883 3.93313 15.4693 4.72915C16.4502 5.52517 17.1272 6.63459 17.3865 7.87097C17.6457 9.10734 17.4715 10.3953 16.8931 11.5183C16.3146 12.6414 15.3672 13.5311 14.21 14.0379L14 14.1249L14.001 15.7099C15.6016 15.2324 16.9787 14.1983 17.8836 12.7945C18.7886 11.3906 19.1617 9.70938 18.9356 8.05448C18.7095 6.39958 17.8992 4.88007 16.6508 3.77033C15.4025 2.6606 13.7985 2.03381 12.1286 2.00313C10.4586 1.97246 8.83265 2.53994 7.54443 3.60309C6.25621 4.66623 5.39059 6.15497 5.1039 7.80045C4.81721 9.44593 5.12834 11.1397 5.98111 12.5759C6.83388 14.012 8.17208 15.0959 9.75403 15.6319L10 15.7099ZM10 13.0319V11.2359C9.55319 10.8363 9.2363 10.312 9.09023 9.7306C8.94416 9.14922 8.97561 8.53741 9.18052 7.97408C9.38544 7.41074 9.75441 6.92171 10.2399 6.57004C10.7253 6.21838 11.305 6.02022 11.9042 6.00111C12.5033 5.98199 13.0944 6.14281 13.6013 6.46282C14.1082 6.78282 14.5076 7.24735 14.748 7.79648C14.9884 8.34561 15.0588 8.95417 14.9501 9.54368C14.8413 10.1332 14.5585 10.6766 14.138 11.1039L14.001 11.2349V13.0319C14.9018 12.5847 15.6267 11.8487 16.0603 10.9414C16.4938 10.034 16.611 9.00758 16.393 8.02588C16.1751 7.04418 15.6345 6.16377 14.8578 5.52515C14.081 4.88653 13.1126 4.5265 12.1073 4.50252C11.102 4.47854 10.1176 4.79199 9.31123 5.39284C8.50487 5.99369 7.923 6.84732 7.65847 7.81752C7.39395 8.78771 7.46201 9.81855 7.85181 10.7455C8.24161 11.6725 8.93067 12.4422 9.80903 12.9319L9.99903 13.0319H10ZM11.387 21.7899C11.5624 21.9259 11.7781 21.9998 12 21.9998C12.222 21.9998 12.4377 21.9259 12.613 21.7899L12.707 21.7069L15.707 18.7069L15.79 18.6129C15.9261 18.4375 16 18.2218 16 17.9999C16 17.7779 15.9261 17.5622 15.79 17.3869L15.707 17.2929L15.613 17.2099C15.4377 17.0738 15.222 16.9999 15 16.9999C14.7781 16.9999 14.5624 17.0738 14.387 17.2099L14.293 17.2929L13 18.5849V8.99985C12.9998 8.74497 12.9022 8.49982 12.7272 8.31449C12.5522 8.12915 12.3131 8.01762 12.0586 8.00268C11.8042 7.98774 11.5537 8.07053 11.3582 8.23412C11.1627 8.39771 11.0371 8.62976 11.007 8.88285L11 8.99985V18.5849L9.70703 17.2929L9.61303 17.2099C9.42062 17.0607 9.18041 16.9869 8.93744 17.0022C8.69447 17.0175 8.46544 17.121 8.2933 17.2931C8.12115 17.4653 8.01772 17.6943 8.00239 17.9373C7.98706 18.1802 8.06089 18.4204 8.21004 18.6129L8.29304 18.7069L11.293 21.7069L11.387 21.7899Z" fill="black"/>
</svg>
